<svg id="Solar_Rings" data-name="Solar Rings" xmlns="http://www.w3.org/2000/svg" width="799.94" height="746.208" viewBox="0 0 1543.69 1440">
  <defs>
    <style>
      .cls-1, .cls-2 {
        fill: none;
        stroke-linecap: round;
        stroke-linejoin: round;
        stroke-width: 16.667px;
        fill-rule: evenodd;
      }

      .cls-1 {
        stroke: #3a1767;
      }

      .cls-2 {
        stroke: #3c2668;
      }
    </style>
  </defs>
  <path class="cls-1" d="M356-15c210.973,0,382,151.328,382,338S566.973,661,356,661-26,509.672-26,323,145.027-15,356-15Z"/>
  <path id="Ellipse_2_copy" data-name="Ellipse 2 copy" class="cls-1" d="M356-152.91c296.741,0,537.3,212.849,537.3,475.41S652.741,797.91,356,797.91-181.3,585.061-181.3,322.5,59.259-152.91,356-152.91Z"/>
  <path id="Ellipse_2_copy_2" data-name="Ellipse 2 copy 2" class="cls-1" d="M364-269.312c369.709,0,669.42,265.187,669.42,592.312S733.709,915.312,364,915.312-305.417,650.125-305.417,323-5.709-269.312,364-269.312Z"/>
  <path id="Ellipse_2_copy_3" data-name="Ellipse 2 copy 3" class="cls-1" d="M355.5-376.76c436.464,0,790.29,313.069,790.29,699.26S791.964,1021.76,355.5,1021.76-434.788,708.691-434.788,322.5-80.964-376.76,355.5-376.76Z"/>
  <path id="Ellipse_2_copy_4" data-name="Ellipse 2 copy 4" class="cls-1" d="M364.223-480.223c501.356,0,907.787,359.616,907.787,803.223s-406.431,803.22-907.787,803.22S-543.561,766.608-543.561,323-137.132-480.223,364.223-480.223Z"/>
  <path id="Ellipse_2_copy_5" data-name="Ellipse 2 copy 5" class="cls-1" d="M364.187-536.748c548.754,0,993.6,393.614,993.6,879.161s-444.849,879.157-993.6,879.157S-629.42,827.96-629.42,342.413-184.567-536.748,364.187-536.748Z"/>
  <path id="Ellipse_2_copy_6" data-name="Ellipse 2 copy 6" class="cls-1" d="M364.293-606.156c601.184,0,1088.537,431.22,1088.537,963.158S965.477,1320.16,364.293,1320.16-724.247,888.939-724.247,357-236.891-606.156,364.293-606.156Z"/>
  <path id="Ellipse_2_copy_7" data-name="Ellipse 2 copy 7" class="cls-1" d="M365.849-636.3c645.891,0,1169.491,463.29,1169.491,1034.787S1011.74,1433.28,365.849,1433.28-803.645,969.986-803.645,398.489-280.045-636.3,365.849-636.3Z"/>
  <path id="Ellipse_2_copy_8" data-name="Ellipse 2 copy 8" class="cls-2" d="M1353,182.141c73.67,0,133.38,55.188,133.38,123.265S1426.67,428.672,1353,428.672s-133.38-55.188-133.38-123.266S1279.33,182.141,1353,182.141Z"/>
  <path id="Ellipse_2_copy_9" data-name="Ellipse 2 copy 9" class="cls-2" d="M1352.84,152.46c91.41,0,165.5,68.476,165.5,152.946s-74.09,152.947-165.5,152.947-165.5-68.477-165.5-152.947S1261.44,152.46,1352.84,152.46Z"/>
</svg>
