<svg id="Solar_Rings" data-name="Solar Rings" xmlns="http://www.w3.org/2000/svg" width="795.033" height="746.208" viewBox="0 0 1534.22 1440">
  <defs>
    <style>
      .cls-1 {
        fill: none;
        stroke: #3c2668;
        stroke-linecap: round;
        stroke-linejoin: round;
        stroke-width: 16.667px;
        fill-rule: evenodd;
      }
    </style>
  </defs>
  <path id="Ellipse_2_copy_9" data-name="Ellipse 2 copy 9" class="cls-1" d="M350.045-14.113c211.513,0,382.978,158.457,382.978,353.925S561.558,693.736,350.045,693.736-32.934,535.279-32.934,339.812,138.531-14.113,350.045-14.113Z"/>
  <path id="Ellipse_2_copy_10" data-name="Ellipse 2 copy 10" class="cls-1" d="M335.749-138.022c283.628,0,513.554,212.483,513.554,474.594S619.377,811.166,335.749,811.166-177.8,598.683-177.8,336.572,52.122-138.022,335.749-138.022Z"/>
  <path id="Ellipse_2_copy_12" data-name="Ellipse 2 copy 12" class="cls-1" d="M326.142-252.116c351.978,0,637.314,263.689,637.314,588.966S678.12,925.816,326.142,925.816-311.173,662.127-311.173,336.85-25.838-252.116,326.142-252.116Z"/>
  <path id="Ellipse_2_copy_13" data-name="Ellipse 2 copy 13" class="cls-1" d="M325.286-361.043c425.678,0,770.764,318.9,770.764,712.288S750.964,1063.53,325.286,1063.53s-770.761-318.9-770.761-712.285S-100.394-361.043,325.286-361.043Z"/>
  <path id="Ellipse_2_copy_14" data-name="Ellipse 2 copy 14" class="cls-1" d="M321.066-460.232c491.35,0,889.664,368.1,889.664,822.176S812.416,1184.12,321.066,1184.12-568.6,816.02-568.6,361.944-170.285-460.232,321.066-460.232Z"/>
  <path id="Ellipse_2_copy_15" data-name="Ellipse 2 copy 15" class="cls-1" d="M321.562-573.739c549.031,0,994.108,411.313,994.108,918.693s-445.077,918.7-994.108,918.7-994.109-411.315-994.109-918.7S-227.47-573.739,321.562-573.739Z"/>
  <path id="Ellipse_2_copy_16" data-name="Ellipse 2 copy 16" class="cls-1" d="M320.094-667.422c603.855,0,1093.376,452.385,1093.376,1010.43S923.949,1353.44,320.094,1353.44-773.282,901.053-773.282,343.008-283.761-667.422,320.094-667.422Z"/>
  <path id="Ellipse_2_copy_17" data-name="Ellipse 2 copy 17" class="cls-1" d="M339.735-760.634c655.09,0,1186.145,490.769,1186.145,1096.163S994.825,1431.69,339.735,1431.69-846.412,940.923-846.412,335.529-315.356-760.634,339.735-760.634Z"/>
</svg>
